<svg version="1.1" xmlns="http://www.w3.org/2000/svg" xmlns:xlink="http://www.w3.org/1999/xlink" preserveAspectRatio="xMidYMid meet" viewBox="610 215 75 126"><g data-item-type="text" data-item="Business" id="logo__item--business" class="logo__item logo__item--active">
                <g class="logo__item__inner" transform="translate(688.4375 306.8137653081563) scale(2.0705244122965643 2.0705244122965643) rotate(0 0 0)">
                    <text data-part-id="logo__item--business" dy="0" dominant-baseline="auto" alignment-baseline="auto" font-family="Montserrat" font-size="32px" fill="#3866AC" letter-spacing="0" font-weight="bold" font-style="normal" data-font-family="Montserrat" data-font-weight="bold" data-font-style="normal" data-ttf-url="/builder_assets/fontsttf/font-montserrat-bold-normal.ttf" data-font-filename="montserrat-bold-normal"></text>
                </g>
            </g><g data-item-type="image" data-item="Image" data-logo-item="" id="logo__item--logo_0" class="logo__item">
    <g class="logo__item__inner" transform="translate(582.7143598841571 211.5) scale(0.9029343713747466 0.9029343713747466) rotate(0 0 0)">
        
<g>
	<path fill="none" d="M76.1,66.6c-0.8,0-1.6-0.1-2.4-0.1c-0.4,0.4-0.7,0.8-1,1.2c-0.1,1.6,0,3.3,0.1,4.9c0.1,2.1,0.4,4.1,1.3,5.9   c6.4,0,11.4,1,11.4,2.2c0,1.2-5.3,2.2-11.8,2.2c-6.5,0-11.8-1-11.8-2.2c0-1,3.6-1.9,8.6-2.1c-0.5-1.5-0.8-3.1-0.9-4.7   c-0.2-2.4-0.2-4.9,0-7.4c-13.8,0.8-23.1,6.6-23.1,11.9c0,5.7,10.9,12,26.5,12s26.5-6.3,26.5-12c0-3.4-3.8-7-10.2-9.3   C84.2,72.6,80.4,69.4,76.1,66.6z" data-part-id="logo__item--logo_0__0"></path>
	<path fill="none" d="M83,31.2v-1.7c0,0,0.6-0.1,0.9-0.2c1-0.3,1.8-0.8,2.4-1.5c0.8-0.9,1.2-2,1.2-3.3c0-1.2-0.3-2.1-1-2.9   c-0.5-0.6-1.4-1.1-2.6-1.6C83.6,20,83,19.9,83,19.8v-4.3c0,0.2,0.7,0.4,0.9,0.8c0.2,0.3,0.3,0.6,0.4,1l2.7-0.4   c-0.2-1.1-0.6-2-1.3-2.6c-0.5-0.5-1.1-0.8-1.8-1c-0.3-0.1-0.9-0.1-0.9-0.2V12h-2v1.1c0,0-0.3,0.1-0.5,0.1c-0.9,0.2-1.6,0.6-2.2,1.3   c-0.8,0.8-1.1,1.8-1.1,3c0,1.2,0.4,2.2,1,3c0.5,0.7,1.2,1.2,2.3,1.6c0.2,0.1,0.5,0.2,0.5,0.2v4.6c0-0.1-0.3-0.3-0.5-0.5   c-0.1-0.1-0.2-0.3-0.3-0.4c-0.3-0.4-0.5-0.9-0.6-1.5l-2.8,0.3c0.2,1.4,0.7,2.5,1.5,3.3c0.6,0.6,1.2,1.1,2.2,1.3   c0.2,0.1,0.5,0.1,0.5,0.1V32h1.4C82.5,31,83,31.1,83,31.2z M83,22.9c0,0.1,0.6,0.2,0.9,0.4c0.2,0.1,0.3,0.3,0.5,0.4   c0.3,0.4,0.4,0.8,0.4,1.3c0,0.5-0.2,1-0.5,1.4c-0.1,0.1-0.2,0.3-0.4,0.4C83.6,26.9,83,27,83,27.1V22.9z M81,19.3   c0-0.1-0.3-0.3-0.5-0.4c-0.1-0.1-0.2-0.2-0.3-0.4c-0.2-0.3-0.3-0.7-0.3-1.1c0-0.4,0.1-0.8,0.4-1.2c0.1-0.1,0-0.2,0.2-0.3   c0.2-0.2,0.5-0.3,0.5-0.4V19.3z" data-part-id="logo__item--logo_0__1"></path>
	<path fill="none" d="M79.7,97.3c-2.2,0.3-4.5,0.4-6.9,0.4C56.9,97.8,44,91.3,44,83.3v-3.2c-5,2.3-7.2,5.2-7.2,8   c0,5.7,10.9,12,26.4,12C69.7,100.2,75.3,99,79.7,97.3z" data-part-id="logo__item--logo_0__2"></path>
	<path fill="none" d="M77.3,64.2c0.2-0.1,0.4-0.2,0.6-0.3c0.2-0.1,0.4-0.2,0.6-0.3c0.4-0.2,0.8-0.4,1.3-0.6c0.2-0.1,0.4-0.2,0.7-0.3   c0.2-0.1,0.5-0.2,0.7-0.3c0.2-0.1,0.5-0.2,0.7-0.3c0.2-0.1,0.5-0.2,0.7-0.3c0.2-0.1,0.4-0.2,0.7-0.3c0.2-0.1,0.4-0.2,0.7-0.2   c0.4-0.1,0.9-0.3,1.3-0.4c0.4-0.1,0.8-0.2,1.1-0.3c0.4-0.1,0.7-0.2,1-0.3c0.3-0.1,0.5-0.2,0.8-0.2c0.4-0.1,0.7-0.2,0.7-0.2   c-2.5,0.3-4.9,0.8-7.1,1.7c-1.5,0.6-3,1.4-4.4,2.3c-0.1,0.1-0.3,0.2-0.5,0.4c0.2,0,0.5,0,0.7,0C77.2,64.2,77.2,64.2,77.3,64.2z" data-part-id="logo__item--logo_0__3"></path>
	<path fill="none" d="M99.5,88.8c-1.7,2.1-4.3,3.9-7.6,5.3c-1.1,6.9-11.8,12.3-25.4,13.1c4.3,1.6,9.7,2.6,15.9,2.6   c15.6,0,26.5-6.3,26.5-12C108.9,94.5,105.3,91.2,99.5,88.8z" data-part-id="logo__item--logo_0__4"></path>
	<path fill="none" d="M47.1,104.9c-0.4,0.8-0.7,1.6-0.7,2.5c0,5.7,10.9,12,26.5,12c6.5,0,12.1-1.1,16.5-2.8c0,0,0,0,0,0   c-2.2,0.3-4.5,0.4-6.9,0.4c-13,0-24-4.3-27.6-10.2C52,106.3,49.4,105.7,47.1,104.9z" data-part-id="logo__item--logo_0__5"></path>
	<path fill="none" d="M98.3,118.9c-4.8,4.6-14.4,7.7-25.5,7.7c-11.1,0-20.7-3.1-25.5-7.7c0,0,0,0,0,0c-0.6,1-1,1.9-1,2.9   c0,5.7,10.9,12,26.5,12s26.5-6.3,26.5-12C99.3,120.9,98.9,119.9,98.3,118.9L98.3,118.9z" data-part-id="logo__item--logo_0__6"></path>
	<path fill="#0056b3" d="M61.8,80.8c0,1.2,5.3,2.2,11.8,2.2c6.5,0,11.8-1,11.8-2.2c0-1.2-5.1-2.2-11.4-2.2c0.2,0.4,0.3,0.7,0.6,1.1   c1.1,1.9-1.7,3.4-2.9,1.7c-0.6-0.8-1-1.7-1.3-2.7C65.5,79,61.8,79.8,61.8,80.8z" data-part-id="logo__item--logo_0__7"></path>
	<path fill="#3866AC" d="M75,65.8c0.1-0.1,0.3-0.3,0.5-0.4c0.1-0.1,0.2-0.2,0.4-0.3c0.1-0.1,0.3-0.2,0.4-0.3   c0.2-0.1,0.3-0.2,0.5-0.3c0.1-0.1,0.3-0.2,0.4-0.3c-0.2,0-0.5,0-0.7,0c-0.7,0.5-1.7,1.3-2.7,2.2c0,0,0,0,0,0.1c0.8,0,1.6,0,2.4,0.1   C75.7,66.3,75.4,66.1,75,65.8z" data-part-id="logo__item--logo_0__8"></path>
	<path fill="#3866AC" d="M100.9,86.7c0.5-1.1,1.1-2.2,1.1-3.3v-4.8c0-4.5-4.3-8.5-10.7-11.1c-0.7,0.7-1.5,1.3-2.1,1.8   c6.4,2.4,10.1,6,10.1,9.3c0,5.7-10.9,12-26.5,12s-26.5-6.3-26.5-12c0-5.3,9.3-11.1,23.1-11.9c0-0.2,0-0.4,0-0.6   c0.1-0.6,0.2-1.2,0.3-1.9c-13.8,0.7-24.9,6.3-26,13.2c-6,2.6-9.9,6.5-9.9,10.8v4.8c0,4.5,4.2,8.5,10.6,11.1   c-0.5,1.1-0.6,2.2-0.6,3.3v4.8c0,1.7,0.6,3.3,1.7,4.8c-1.1,1.5-1.7,3.1-1.7,4.8v4.8c0,8,13.1,14.4,29,14.4c15.9,0,29-6.5,29-14.4   v-4.8c0-1.7-0.8-3.4-1.9-4.9c0,0-0.1,0-0.1,0c0.8-1.1,1.2-2.3,1.5-3.6c6-2.6,9.5-6.5,9.5-10.8v-4.8C111,93.3,107.3,89.3,100.9,86.7   z M36.8,88.1c0-2.8,2.2-5.8,7.2-8v3.2c0,8,12.9,14.4,28.8,14.4c2.4,0,4.7-0.2,6.9-0.4c-4.4,1.7-10,2.8-16.5,2.8   C47.6,100.2,36.8,93.8,36.8,88.1z M82.4,117c2.4,0,4.7-0.2,6.9-0.4c0,0,0,0,0,0c-4.4,1.7-10,2.8-16.5,2.8c-15.6,0-26.5-6.3-26.5-12   c0-0.8,0.3-1.6,0.7-2.5c2.4,0.8,5,1.4,7.8,1.8C58.4,112.7,69.4,117,82.4,117z M72.8,133.8c-15.6,0-26.5-6.3-26.5-12   c0-0.9,0.4-1.9,1-2.9c0,0,0,0,0,0c4.8,4.6,14.4,7.7,25.5,7.7c11.1,0,20.6-3.1,25.5-7.7l0,0c0.6,1,1,1.9,1,2.9   C99.3,127.5,88.4,133.8,72.8,133.8z M82.4,109.8c-6.2,0-11.6-1-15.9-2.6c13.6-0.8,24.3-6.2,25.4-13.1c3.3-1.5,5.9-3.3,7.6-5.3   c5.8,2.4,9.4,5.8,9.4,9C108.9,103.4,98,109.8,82.4,109.8z" data-part-id="logo__item--logo_0__9"></path>
	<path fill="#3866AC" d="M72.8,65.7c0.7-0.6,1.4-1.2,1.8-1.6c-0.5,0-1.1,0-1.6,0c-0.1,0.4-0.1,0.8-0.2,1.2   C72.8,65.4,72.8,65.6,72.8,65.7z" data-part-id="logo__item--logo_0__10"></path>
	<path fill="#85B040" d="M82.4,31.5h0.5v-0.4C82.7,31.1,82.5,31.3,82.4,31.5z" data-part-id="logo__item--logo_0__11"></path>
	<path fill="#0056b3" d="M69.5,66.6c-0.3,2.4-0.2,4.9,0,7.4c0.1,1.6,0.4,3.2,0.9,4.7c0.3,0.9,0.8,1.8,1.3,2.7c1.2,1.7,4,0.2,2.9-1.7   c-0.2-0.4-0.4-0.7-0.6-1.1c-0.8-1.9-1.1-3.9-1.3-5.9c-0.1-1.6-0.2-3.3-0.1-4.9c0.3-0.4,0.7-0.9,1-1.2c0,0,0,0,0-0.1   c1-1,2-1.8,2.7-2.2c0.2-0.2,0.4-0.3,0.5-0.4c1.4-0.9,2.9-1.7,4.4-2.3c2.2-0.9,4.6-1.5,7.1-1.7c0,0-0.2,0.1-0.7,0.2   c-0.2,0.1-0.5,0.1-0.8,0.2c-0.3,0.1-0.6,0.2-1,0.3c-0.4,0.1-0.7,0.2-1.1,0.3c-0.4,0.1-0.8,0.3-1.3,0.4c-0.2,0.1-0.4,0.1-0.7,0.2   c-0.2,0.1-0.4,0.2-0.7,0.3c-0.2,0.1-0.5,0.2-0.7,0.3c-0.2,0.1-0.4,0.2-0.7,0.3c-0.2,0.1-0.5,0.2-0.7,0.3c-0.2,0.1-0.4,0.2-0.7,0.3   c-0.4,0.2-0.9,0.4-1.3,0.6c-0.2,0.1-0.4,0.2-0.6,0.3c-0.2,0.1-0.4,0.2-0.6,0.3c0,0-0.1,0-0.1,0.1c-0.1,0.1-0.3,0.2-0.4,0.3   c-0.2,0.1-0.3,0.2-0.5,0.3c-0.2,0.1-0.3,0.2-0.4,0.3c-0.1,0.1-0.3,0.2-0.4,0.3c-0.2,0.2-0.4,0.3-0.5,0.4c0.4,0.2,0.8,0.5,1.2,0.7   c4.3,2.8,8.1,6,13,2.6c0.7-0.5,1.4-1.1,2.1-1.8c0.3-0.3,0.6-0.6,0.9-0.9c2.1-2.5,5.9-4.4,9.9-4.4c-12.3-10.3-22.7-12.7-27.2,2.1   c0,0,0,0-0.1,0c-0.5,0.4-1.1,0.9-1.8,1.6c0-0.1,0-0.3,0-0.4c0-0.4,0.1-0.8,0.2-1.2c0.7-3.6,2.3-7.1,4.1-10.3   c1.9-3.4,3.9-6.7,5.4-10.3c0.9-2.4,1.6-5.3,1.5-8.1c-0.6,0.1-1.2,0.2-1.8,0.2c0,0.8-0.1,1.7-0.3,2.5c-0.4,2-1.2,3.9-2,5.7   c-0.4,0.8-0.8,1.6-1.3,2.4c-0.6-0.8-1.5-1.7-2-2.2C74.4,33,66.8,34,57.3,40.5c2.9,0.3,5.4,1.9,6.8,3.9c4.3,6.2,8,2.9,12.2,0.8   c-0.1-0.1-0.2-0.2-0.3-0.3c-0.1-0.1-0.2-0.2-0.3-0.2c-0.1-0.1-0.2-0.2-0.3-0.3c-0.1-0.1-0.2-0.2-0.3-0.3c-0.1-0.1-0.2-0.2-0.4-0.3   c-0.1-0.1-0.2-0.2-0.4-0.3c-0.1-0.1-0.3-0.2-0.4-0.3c-0.3-0.2-0.6-0.4-0.9-0.5c-0.2-0.1-0.3-0.2-0.4-0.3c-0.2-0.1-0.3-0.2-0.5-0.2   C72,42.1,71.9,42,71.7,42c-0.2-0.1-0.3-0.2-0.5-0.2c-0.2-0.1-0.3-0.1-0.5-0.2c-0.2-0.1-0.3-0.1-0.5-0.2c-0.3-0.1-0.6-0.3-0.9-0.4   c-0.3-0.1-0.6-0.2-0.8-0.3c-0.2-0.1-0.5-0.2-0.7-0.3c-0.2-0.1-0.4-0.2-0.5-0.2C67.2,40,67,39.9,67,39.9c1.8,0.4,3.4,0.9,5,1.7   c1.1,0.5,2.1,1.2,3,2c0.3,0.2,1.3,1.1,2.1,2.1c0.3,0.4,0.7,0.9,0.9,1.4c-1.4,2.4-2.9,4.6-4.3,7c-1.8,3.2-3.2,6.5-3.9,10.1   c-0.1,0.6-0.2,1.2-0.3,1.9C69.5,66.2,69.5,66.4,69.5,66.6z" data-part-id="logo__item--logo_0__12"></path>
	<path fill="#3866AC" d="M84.3,26.3c0.3-0.4,0.5-0.9,0.5-1.4c0-0.5-0.1-0.9-0.4-1.3c-0.1-0.2-0.3-0.3-0.5-0.4   C83.6,23.1,83,23,83,22.9v4.2c0-0.1,0.6-0.2,0.9-0.4C84,26.6,84.1,26.5,84.3,26.3z" data-part-id="logo__item--logo_0__13"></path>
	<path fill="#3866AC" d="M80.3,16.3C80.1,16.6,80,17,80,17.4c0,0.4,0.1,0.7,0.3,1.1c0.1,0.1,0,0.3,0.2,0.4c0.2,0.2,0.5,0.3,0.5,0.4   v-3.8c0,0.1-0.3,0.2-0.5,0.4C80.4,16,80.4,16.1,80.3,16.3z" data-part-id="logo__item--logo_0__14"></path>
	<path fill="#3866AC" d="M95.5,21.8c0-7.6-6.2-13.7-13.7-13.7C74.2,8.1,68,14.2,68,21.8c0,7.6,6.2,13.7,13.7,13.7c0.2,0,0.3,0,0.5,0   c0.6,0,1.2-0.1,1.8-0.2C90.5,34.2,95.5,28.6,95.5,21.8z M82.4,32H81v-2.4c0,0-0.3-0.1-0.5-0.1c-0.9-0.2-1.6-0.6-2.3-1.3   c-0.8-0.8-1.2-1.9-1.5-3.3l2.9-0.3c0.1,0.6,0.3,1.1,0.7,1.5c0.1,0.2,0.1,0.3,0.2,0.4c0.2,0.2,0.5,0.4,0.5,0.5v-4.6   c0-0.1-0.3-0.1-0.5-0.2c-1.1-0.4-1.8-0.9-2.3-1.6c-0.7-0.8-1-1.8-1-3c0-1.2,0.4-2.2,1.1-3c0.6-0.7,1.2-1.1,2.1-1.3   c0.2-0.1,0.5-0.1,0.5-0.1V12h2v1.1c0,0,0.6,0.1,0.9,0.2c0.7,0.2,1.3,0.5,1.8,1c0.7,0.7,1.1,1.5,1.3,2.6l-2.8,0.4   c-0.1-0.4-0.2-0.7-0.4-1C83.7,16,83,15.7,83,15.5v4.3c0,0.1,0.6,0.2,0.9,0.3c1.2,0.4,2.1,0.9,2.6,1.6c0.6,0.8,0.9,1.7,0.9,2.9   c0,1.3-0.4,2.4-1.2,3.3c-0.6,0.7-1.4,1.2-2.4,1.5c-0.3,0.1-0.9,0.1-0.9,0.2v1.7V32H82.4z" data-part-id="logo__item--logo_0__15"></path>
</g>

    </g>
</g></svg>